<?xml version="1.0"?>
<svg xmlns="http://www.w3.org/2000/svg" viewBox="0 0 1020 350" width="1020" height="350" shape-rendering="geometricPrecision" version="1.0">
  <defs>
    <filter id="f2" x="0" y="0" width="200%" height="200%">
      <feOffset result="offOut" in="SourceGraphic" dx="5" dy="5"/>
      <feGaussianBlur result="blurOut" in="offOut" stdDeviation="3"/>
      <feBlend in="SourceGraphic" in2="blurOut" mode="normal"/>
    </filter>
  </defs>
  <g stroke-width="1" stroke-linecap="square" stroke-linejoin="round">
    <rect x="0" y="0" width="1020" height="350" style="fill: #ffffff"/>
    <path stroke="#000000" stroke-width="1.000000" stroke-linecap="round" stroke-linejoin="round" fill="#99dd99" d="M395.0 63.0 L945.0 63.0 L945.0 133.0 L395.0 133.0 z"/>
    <path stroke="#000000" stroke-width="1.000000" stroke-linecap="round" stroke-linejoin="round" fill="#ffff33" d="M215.0 133.0 L215.0 203.0 L685.0 203.0 L685.0 133.0 z"/>
    <path stroke="#000000" stroke-width="1.000000" stroke-linecap="round" stroke-linejoin="round" fill="#ffff33" d="M875.0 203.0 L875.0 273.0 L455.0 273.0 L455.0 203.0 z"/>
    <path stroke="#000000" stroke-width="1.000000" stroke-linecap="round" stroke-linejoin="round" fill="#99dd99" d="M395.0 63.0 L395.0 133.0 L25.0 133.0 L25.0 63.0 z"/>
    <path stroke="#000000" stroke-width="1.000000" stroke-linecap="round" stroke-linejoin="round" fill="none" d="M215.0 294.0 L215.0 307.0 "/>
    <path stroke="#000000" stroke-width="1.000000" stroke-linecap="round" stroke-linejoin="round" fill="none" d="M25.0 294.0 L25.0 307.0 "/>
    <path stroke="#000000" stroke-width="1.000000" stroke-linecap="round" stroke-linejoin="round" fill="none" d="M405.0 294.0 L405.0 307.0 "/>
    <path stroke="#000000" stroke-width="1.000000" stroke-linecap="round" stroke-linejoin="round" fill="none" d="M595.0 294.0 L595.0 307.0 "/>
    <path stroke="#000000" stroke-width="1.000000" stroke-linecap="round" stroke-linejoin="round" fill="none" d="M785.0 294.0 L785.0 307.0 "/>
    <path stroke="#000000" stroke-width="1.000000" stroke-linecap="round" stroke-linejoin="round" fill="none" d="M975.0 294.0 L975.0 307.0 "/>
    <text x="40" y="96" font-family="Courier" font-size="15" stroke="none" fill="#000000">products</text>
    <text x="40" y="110" font-family="Courier" font-size="15" stroke="none" fill="#000000">(5, 5.00, [1 Jan 2020,1 Jan 2022))</text>
    <text x="210" y="320" font-family="Courier" font-size="15" stroke="none" fill="#000000">2021</text>
    <text x="230" y="166" font-family="Courier" font-size="15" stroke="none" fill="#000000">variants</text>
    <text x="230" y="180" font-family="Courier" font-size="15" stroke="none" fill="#000000">(8, 5, 'Medium', [1 Jan 2021,1 Jun 2023))</text>
    <text x="20" y="320" font-family="Courier" font-size="15" stroke="none" fill="#000000">2020</text>
    <text x="470" y="236" font-family="Courier" font-size="15" stroke="none" fill="#000000">variants</text>
    <text x="470" y="250" font-family="Courier" font-size="15" stroke="none" fill="#000000">(9, 5, 'XXL', [1 Mar 2022,1 Jun 2024))</text>
    <text x="410" y="96" font-family="Courier" font-size="15" stroke="none" fill="#000000">products</text>
    <text x="410" y="110" font-family="Courier" font-size="15" stroke="none" fill="#000000">(5, 8.00, [1 Jan 2022,))</text>
    <text x="590" y="320" font-family="Courier" font-size="15" stroke="none" fill="#000000">2023</text>
    <text x="400" y="320" font-family="Courier" font-size="15" stroke="none" fill="#000000">2022</text>
    <text x="780" y="320" font-family="Courier" font-size="15" stroke="none" fill="#000000">2024</text>
    <text x="979" y="320" font-family="Courier" font-size="15" stroke="none" fill="#000000">...</text>
  </g>
</svg>
